HIERARCHY
ROOT hip
{
  OFFSET -1.79713 86.3272 118.194
  CHANNELS 6 Xposition Yposition Zposition Zrotation Xrotation Yrotation
  JOINT abdomen
  {
    OFFSET 0 20.6881 -0.73152
    CHANNELS 3 Zrotation Xrotation Yrotation
    JOINT chest
    {
      OFFSET 0 11.7043 -0.48768
      CHANNELS 3 Zrotation Xrotation Yrotation
      JOINT neck
      {
        OFFSET 0 22.1894 -2.19456
        CHANNELS 3 Zrotation Xrotation Yrotation
        JOINT head
        {
          OFFSET -0.24384 7.07133 1.2192
          CHANNELS 3 Zrotation Xrotation Yrotation
          JOINT leftEye
          {
            OFFSET 4.14528 8.04674 8.04672
            CHANNELS 3 Zrotation Xrotation Yrotation
            End Site
            {
              OFFSET 1 0 0
            }
          }
          JOINT rightEye
          {
            OFFSET -3.6576 8.04674 8.04672
            CHANNELS 3 Zrotation Xrotation Yrotation
            End Site
            {
              OFFSET 1 0 0
            }
          }
        }
      }
      JOINT rCollar
      {
        OFFSET -2.68224 19.2634 -4.8768
        CHANNELS 3 Zrotation Xrotation Yrotation
        JOINT rShldr
        {
          OFFSET -8.77824 -1.95073 1.46304
          CHANNELS 3 Zrotation Xrotation Yrotation
          JOINT rForeArm
          {
            OFFSET -28.1742 -1.7115 0.48768
            CHANNELS 3 Zrotation Xrotation Yrotation
            JOINT rHand
            {
              OFFSET -22.5879 0.773209 7.07136
              CHANNELS 3 Zrotation Xrotation Yrotation
              JOINT rThumb1
              {
                OFFSET -1.2192 -0.487915 3.41376
                CHANNELS 3 Zrotation Xrotation Yrotation
                JOINT rThumb2
                {
                  OFFSET -3.37035 -0.52449 3.41376
                  CHANNELS 3 Zrotation Xrotation Yrotation
                  End Site
                  {
                    OFFSET -1.78271 -1.18214 1.43049
                  }
                }
              }
              JOINT rIndex1
              {
                OFFSET -7.75947 0.938293 5.60832
                CHANNELS 3 Zrotation Xrotation Yrotation
                JOINT rIndex2
                {
                  OFFSET -2.54057 -0.884171 1.56538
                  CHANNELS 3 Zrotation Xrotation Yrotation
                  End Site
                  {
                    OFFSET -1.62519 -0.234802 1.16502
                  }
                }
              }
              JOINT rMid1
              {
                OFFSET -8.24714 1.18213 3.41376
                CHANNELS 3 Zrotation Xrotation Yrotation
                JOINT rMid2
                {
                  OFFSET -3.10165 -0.590103 1.0647
                  CHANNELS 3 Zrotation Xrotation Yrotation
                  End Site
                  {
                    OFFSET -2.48547 -0.328903 0.83742
                  }
                }
              }
              JOINT rRing1
              {
                OFFSET -8.82822 0.546677 1.51678
                CHANNELS 3 Zrotation Xrotation Yrotation
                JOINT rRing2
                {
                  OFFSET -2.60934 -0.819778 -0.0198488
                  CHANNELS 3 Zrotation Xrotation Yrotation
                  End Site
                  {
                    OFFSET -2.33842 -0.294052 0.168128
                  }
                }
              }
              JOINT rPinky1
              {
                OFFSET -8.27202 -0.0477905 -0.4584
                CHANNELS 3 Zrotation Xrotation Yrotation
                JOINT rPinky2
                {
                  OFFSET -1.82734 -0.647385 -0.700984
                  CHANNELS 3 Zrotation Xrotation Yrotation
                  End Site
                  {
                    OFFSET -1.69225 -0.51767 -0.607171
                  }
                }
              }
            }
          }
        }
      }
      JOINT lCollar
      {
        OFFSET 2.68224 19.2634 -4.8768
        CHANNELS 3 Zrotation Xrotation Yrotation
        JOINT lShldr
        {
          OFFSET 8.77824 -1.95073 1.46304
          CHANNELS 3 Zrotation Xrotation Yrotation
          JOINT lForeArm
          {
            OFFSET 28.1742 -1.7115 0.48768
            CHANNELS 3 Zrotation Xrotation Yrotation
            JOINT lHand
            {
              OFFSET 22.5879 0.773209 7.07136
              CHANNELS 3 Zrotation Xrotation Yrotation
              JOINT lThumb1
              {
                OFFSET 1.2192 -0.487915 3.41376
                CHANNELS 3 Zrotation Xrotation Yrotation
                JOINT lThumb2
                {
                  OFFSET 3.37035 -0.52449 3.41376
                  CHANNELS 3 Zrotation Xrotation Yrotation
                  End Site
                  {
                    OFFSET 1.78271 -1.18214 1.43049
                  }
                }
              }
              JOINT lIndex1
              {
                OFFSET 7.75947 0.938293 5.60832
                CHANNELS 3 Zrotation Xrotation Yrotation
                JOINT lIndex2
                {
                  OFFSET 2.54057 -0.884171 1.56538
                  CHANNELS 3 Zrotation Xrotation Yrotation
                  End Site
                  {
                    OFFSET 1.62519 -0.234802 1.16502
                  }
                }
              }
              JOINT lMid1
              {
                OFFSET 8.24714 1.18213 3.41376
                CHANNELS 3 Zrotation Xrotation Yrotation
                JOINT lMid2
                {
                  OFFSET 3.10165 -0.590103 1.0647
                  CHANNELS 3 Zrotation Xrotation Yrotation
                  End Site
                  {
                    OFFSET 2.48547 -0.328903 0.83742
                  }
                }
              }
              JOINT lRing1
              {
                OFFSET 8.82822 0.546677 1.51678
                CHANNELS 3 Zrotation Xrotation Yrotation
                JOINT lRing2
                {
                  OFFSET 2.60934 -0.819778 -0.0198488
                  CHANNELS 3 Zrotation Xrotation Yrotation
                  End Site
                  {
                    OFFSET 2.33842 -0.294052 0.168128
                  }
                }
              }
              JOINT lPinky1
              {
                OFFSET 8.27202 -0.0477905 -0.4584
                CHANNELS 3 Zrotation Xrotation Yrotation
                JOINT lPinky2
                {
                  OFFSET 1.82734 -0.647385 -0.700984
                  CHANNELS 3 Zrotation Xrotation Yrotation
                  End Site
                  {
                    OFFSET 1.69225 -0.51767 -0.607171
                  }
                }
              }
            }
          }
        }
      }
    }
  }
  JOINT rButtock
  {
    OFFSET -8.77824 4.35084 1.2192
    CHANNELS 3 Zrotation Xrotation Yrotation
    JOINT rThigh
    {
      OFFSET 0 -1.70687 -2.19456
      CHANNELS 3 Zrotation Xrotation Yrotation
      JOINT rShin
      {
        OFFSET 0 -36.8199 0.73152
        CHANNELS 3 Zrotation Xrotation Yrotation
        JOINT rFoot
        {
          OFFSET 0.73152 -45.1104 -5.12064
          CHANNELS 3 Zrotation Xrotation Yrotation
          End Site
          {
            OFFSET -1.1221 -3.69964 12.103
          }
        }
      }
    }
  }
  JOINT lButtock
  {
    OFFSET 8.77824 4.35084 1.2192
    CHANNELS 3 Zrotation Xrotation Yrotation
    JOINT lThigh
    {
      OFFSET 0 -1.70687 -2.19456
      CHANNELS 3 Zrotation Xrotation Yrotation
      JOINT lShin
      {
        OFFSET 0 -36.8199 0.73152
        CHANNELS 3 Zrotation Xrotation Yrotation
        JOINT lFoot
        {
          OFFSET -0.73152 -45.1104 -5.12064
          CHANNELS 3 Zrotation Xrotation Yrotation
          End Site
          {
            OFFSET 1.1221 -3.69964 12.103
          }
        }
      }
    }
  }
}
MOTION
Frames:	8
Frame Time:	0.00833333
5.42053 85.0114 -80.145 -0.0194627 1.35392e-005 0.00033538 0.0256061 -6.19124e-006 0.000728832 0.00706471 8.63214e-006 0.00122381 3.80337e-016 0 7.765e-019 1.1368e-015 3.18055e-015 4.65902e-018 -0 0 0 -0 0 0 2.47161e-016 -3.88251e-019 1.49089e-016 5.92782e-015 5.03174e-016 7.95139e-016 7.05189e-014 -1.72943e-014 -2.22639e-014 7.86858e-013 3.42158e-014 1.27222e-014 1.8577e-012 2.94696e-014 0 3.1897e-012 4.77083e-014 3.18055e-015 1.86102e-012 2.74323e-014 -9.54166e-015 7.73091 5.47488 0.417314 1.85551e-012 2.93207e-014 0 2.90554 0.965183 0.102902 1.86517e-012 2.92213e-014 3.97569e-015 10.2786 0.731801 0.0259123 1.85168e-012 3.06128e-014 1.90833e-014 2.22167 -0.733487 -0.20892 1.50422e-016 -3.88251e-019 -1.49089e-016 2.02425e-015 4.03781e-016 -7.95139e-016 6.96243e-014 1.92821e-014 2.54444e-014 7.85914e-013 -2.49972e-014 -1.27222e-014 1.85828e-012 -1.82389e-014 1.27222e-014 3.21753e-012 -3.18055e-014 1.82882e-014 1.85506e-012 -1.66979e-014 2.8625e-014 -7.73091 5.47488 -0.417314 1.85854e-012 -1.87852e-014 6.36111e-015 -2.90554 0.965183 -0.102902 1.85119e-012 -1.87852e-014 7.95139e-015 -10.2786 0.731801 -0.0259123 1.86937e-012 -1.66979e-014 -9.54166e-015 -2.22167 -0.733487 0.20892 -2.03217e-016 0 -3.88251e-019 0.512306 -3.13364 -0.0420887 -0.00562807 0.123098 -0.0495528 -0.492806 3.00963 0.117361 2.03217e-016 0 3.88251e-019 -0.473318 -3.03453 0.0397102 0.00592193 -0.0564344 0.0521745 0.492498 3.09005 -0.118955 
5.18734 83.6122 -82.0071 0.231334 1.90085 -1.69657 -0.17908 0.662655 -1.19277 1.35844 -0.785975 -0.309573 -3.28036 0.248193 -2.81375 2.94644 -2.24967 -4.49423 -0 0 0 -0 0 0 1.08199e-014 -3.42664e-014 3.72154e-014 21.5951 3.93711 0.0185033 -4.88262 -2.36865 7.45622 0.00277114 1.16781 0.164001 -3.88435e-010 5.05658e-010 6.22888e-011 -6.71209e-010 8.75529e-010 1.09545e-010 -3.88431e-010 5.05658e-010 6.22802e-011 7.73091 5.47488 0.417314 -3.88436e-010 5.05658e-010 6.22899e-011 2.90554 0.965183 0.102902 -3.88427e-010 5.05658e-010 6.22925e-011 10.2786 0.731801 0.0259123 -3.8844e-010 5.05659e-010 6.23053e-011 2.22167 -0.733487 -0.20892 1.07707e-014 -3.4265e-014 3.69899e-014 -22.6968 4.23264 -0.184306 4.46387 -2.08053 -6.91603 -0.00926863 2.13659 -0.299526 -4.08827e-010 -5.6249e-010 -1.10471e-010 -7.07685e-010 -9.71572e-010 -1.87328e-010 -4.0883e-010 -5.6249e-010 -1.10457e-010 -7.73091 5.47488 -0.417314 -4.08825e-010 -5.6249e-010 -1.10474e-010 -2.90554 0.965183 -0.102902 -4.08833e-010 -5.62491e-010 -1.10473e-010 -10.2786 0.731801 -0.0259123 -4.08816e-010 -5.62489e-010 -1.10488e-010 -2.22167 -0.733487 0.20892 -2.03217e-016 0 -3.88251e-019 0.160441 -6.57124 1.92859 -0.000201825 5.89888 0.0492134 -0.633742 0.254493 -2.46807 2.03217e-016 0 3.88251e-019 -0.320973 -5.76641 -0.754954 -0.00273656 5.03687 -0.0402415 0.630674 -0.0900604 2.40747 
5.18683 83.6121 -82.0107 0.620535 3.90467 -3.49787 -0.366951 1.36019 -2.45685 2.77934 -1.61825 -0.638754 -6.71904 0.487064 -5.79075 5.66155 -4.56264 -9.27169 -0 0 0 -0 0 0 2.21252e-014 -7.3353e-014 8.04643e-014 44.4212 8.10118 0.035696 -9.38032 -4.73928 15.3797 -0.00157271 2.40076 0.337383 -8.25488e-010 1.08629e-009 1.49389e-010 -1.42635e-009 1.88085e-009 2.62237e-010 -8.25485e-010 1.08629e-009 1.49382e-010 7.73091 5.47488 0.417314 -8.25489e-010 1.08629e-009 1.49391e-010 2.90554 0.965183 0.102902 -8.25479e-010 1.08629e-009 1.49393e-010 10.2786 0.731801 0.0259123 -8.25493e-010 1.08629e-009 1.49403e-010 2.22167 -0.733487 -0.20892 2.21306e-014 -7.33499e-014 8.03183e-014 -46.663 8.70294 -0.378475 8.64006 -4.17832 -14.255 0.00530911 4.40183 -0.618503 -8.65125e-010 -1.20028e-009 -2.27924e-010 -1.4975e-009 -2.07321e-009 -3.86282e-010 -8.65128e-010 -1.20028e-009 -2.27913e-010 -7.73091 5.47488 -0.417314 -8.65121e-010 -1.20028e-009 -2.27924e-010 -2.90554 0.965183 -0.102902 -8.6513e-010 -1.20028e-009 -2.27924e-010 -10.2786 0.731801 -0.0259123 -8.65115e-010 -1.20028e-009 -2.27935e-010 -2.22167 -0.733487 0.20892 -2.03217e-016 0 -3.88251e-019 0.0472865 -10.1874 4.04996 -0.016497 12.0043 0.156506 -1.05294 -2.64685 -5.20718 2.03217e-016 0 3.88251e-019 -0.245169 -8.65124 -1.6045 0.00622704 10.4217 -0.139949 1.08183 -3.43995 5.08712 
5.20962 83.612 -82.0125 1.07163 5.68248 -5.11276 -0.50565 1.98453 -3.58169 4.03561 -2.35766 -0.931867 -9.76824 0.7374 -8.44188 7.78548 -6.58268 -13.5634 -0 0 0 -0 0 0 3.19654e-014 -1.02798e-013 1.11348e-013 64.7775 11.8113 0.0565768 -12.8403 -6.62564 22.5079 -0.0117745 3.50331 0.492823 -1.16902e-009 1.51691e-009 1.86867e-010 -2.02001e-009 2.62649e-009 3.28629e-010 -1.16902e-009 1.51692e-009 1.8686e-010 7.73091 5.47488 0.417314 -1.16902e-009 1.51692e-009 1.8687e-010 2.90554 0.965183 0.102902 -1.16901e-009 1.51692e-009 1.86869e-010 10.2786 0.731801 0.0259123 -1.16902e-009 1.51692e-009 1.86878e-010 2.22167 -0.733487 -0.20892 3.20111e-014 -1.02794e-013 1.11268e-013 -68.007 12.6974 -0.565235 11.9147 -5.8786 -20.8491 0.039567 6.40908 -0.9036 -1.2302e-009 -1.68743e-009 -3.31438e-010 -2.12949e-009 -2.91465e-009 -5.62022e-010 -1.2302e-009 -1.68744e-009 -3.3143e-010 -7.73091 5.47488 -0.417314 -1.23019e-009 -1.68743e-009 -3.31435e-010 -2.90554 0.965183 -0.102902 -1.2302e-009 -1.68744e-009 -3.31436e-010 -10.2786 0.731801 -0.0259123 -1.23019e-009 -1.68743e-009 -3.31444e-010 -2.22167 -0.733487 0.20892 -2.03217e-016 0 -3.88251e-019 0.182582 -13.3866 5.99526 -0.051281 17.4503 0.25783 -1.6613 -5.20832 -7.6704 2.03217e-016 0 3.88251e-019 -0.247599 -11.2222 -2.37821 0.0305731 15.2233 -0.232775 1.74948 -6.39571 7.50695 
5.216 83.6133 -82.0098 1.43775 6.91443 -6.24024 -0.579646 2.42915 -4.35666 4.89851 -2.86519 -1.13413 -11.885 1.02184 -10.2781 9.15964 -8.02619 -16.5667 -0 0 0 -0 0 0 3.81427e-014 -1.08141e-013 1.11319e-013 78.963 14.3866 0.0860131 -14.9641 -7.75937 27.5149 -0.0225192 4.27996 0.602641 -1.27875e-009 1.57252e-009 1.00286e-010 -2.20995e-009 2.72296e-009 1.79268e-010 -1.27874e-009 1.57253e-009 1.0028e-010 7.73091 5.47488 0.417314 -1.27875e-009 1.57252e-009 1.00289e-010 2.90554 0.965183 0.102902 -1.27874e-009 1.57252e-009 1.00288e-010 10.2786 0.731801 0.0259123 -1.27875e-009 1.57252e-009 1.00296e-010 2.22167 -0.733487 -0.20892 3.8193e-014 -1.08136e-013 1.1127e-013 -82.8517 15.5026 -0.722445 13.9638 -6.93035 -25.4846 0.0746624 7.77204 -1.09911 -1.36721e-009 -1.798e-009 -4.00104e-010 -2.36691e-009 -3.10562e-009 -6.79731e-010 -1.36721e-009 -1.798e-009 -4.00098e-010 -7.73091 5.47488 -0.417314 -1.3672e-009 -1.798e-009 -4.00101e-010 -2.90554 0.965183 -0.102902 -1.36721e-009 -1.79801e-009 -4.00101e-010 -10.2786 0.731801 -0.0259123 -1.3672e-009 -1.798e-009 -4.00107e-010 -2.22167 -0.733487 0.20892 -2.03217e-016 0 -3.88251e-019 0.421532 -15.5979 7.39046 -0.0878367 21.2479 0.333381 -2.21613 -6.97023 -9.40407 2.03217e-016 0 3.88251e-019 -0.281641 -13.0157 -2.93303 0.0571511 18.5674 -0.30076 2.36296 -8.42299 9.22123 
5.2123 83.6152 -82.0046 1.57135 7.39873 -6.66968 -0.57999 2.62354 -4.64112 5.2153 -3.04595 -1.20903 -12.7217 1.39792 -10.98 9.81877 -8.81615 -17.7325 -0 0 0 -0 0 0 3.7587e-014 -7.68876e-014 6.66771e-014 84.5118 15.3752 0.131026 -15.7349 -8.15426 29.4817 -0.0277109 4.59825 0.647739 -1.03878e-009 1.07485e-009 -1.83858e-010 -1.7961e-009 1.86165e-009 -3.13578e-010 -1.03877e-009 1.07485e-009 -1.83865e-010 7.73091 5.47488 0.417314 -1.03878e-009 1.07485e-009 -1.83856e-010 2.90554 0.965183 0.102902 -1.03877e-009 1.07485e-009 -1.83857e-010 10.2786 0.731801 0.0259123 -1.03878e-009 1.07485e-009 -1.8385e-010 2.22167 -0.733487 -0.20892 3.75778e-014 -7.68847e-014 6.6601e-014 -88.6202 16.6477 -0.836292 14.7254 -7.31244 -27.3263 0.0891366 8.22419 -1.16444 -1.17645e-009 -1.34613e-009 -4.13797e-010 -2.03727e-009 -2.32506e-009 -7.05652e-010 -1.17645e-009 -1.34614e-009 -4.13792e-010 -7.73091 5.47488 -0.417314 -1.17645e-009 -1.34614e-009 -4.13797e-010 -2.90554 0.965183 -0.102902 -1.17645e-009 -1.34614e-009 -4.13794e-010 -10.2786 0.731801 -0.0259123 -1.17644e-009 -1.34613e-009 -4.138e-010 -2.22167 -0.733487 0.20892 -2.03217e-016 0 -3.88251e-019 0.575933 -16.4644 7.94673 -0.105089 22.7359 0.364391 -2.46143 -7.65422 -10.0812 2.03217e-016 0 3.88251e-019 -0.278178 -13.7296 -3.16735 0.0695361 19.8705 -0.32806 2.63442 -9.19096 9.90671 
5.21241 83.6167 -82.0171 1.51442 7.35269 -6.59631 -0.534282 2.63988 -4.57483 5.14395 -2.99346 -1.19281 -12.6545 1.83997 -10.8717 10.0474 -9.17109 -17.5701 -0 0 0 -0 0 0 3.22984e-014 -1.96304e-014 -9.7684e-015 83.8932 15.2303 0.186489 -15.6492 -8.11041 29.2595 -0.027426 4.58928 0.64646 -5.50096e-010 1.83323e-010 -6.07983e-010 -9.52816e-010 3.18545e-010 -1.0498e-009 -5.50083e-010 1.83322e-010 -6.07989e-010 7.73091 5.47488 0.417314 -5.50096e-010 1.83321e-010 -6.07983e-010 2.90554 0.965183 0.102902 -5.50086e-010 1.83322e-010 -6.07982e-010 10.2786 0.731801 0.0259123 -5.50099e-010 1.83323e-010 -6.07974e-010 2.22167 -0.733487 -0.20892 3.21845e-014 -1.96303e-014 -9.91127e-015 -87.9142 16.6069 -0.915903 14.6605 -7.2843 -27.1586 0.0842882 8.02634 -1.13597 -7.51977e-010 -4.94195e-010 -3.88518e-010 -1.30328e-009 -8.53447e-010 -6.66512e-010 -7.51981e-010 -4.942e-010 -3.88514e-010 -7.73091 5.47488 -0.417314 -7.51986e-010 -4.94206e-010 -3.88523e-010 -2.90554 0.965183 -0.102902 -7.51982e-010 -4.942e-010 -3.88516e-010 -10.2786 0.731801 -0.0259123 -7.51971e-010 -4.94199e-010 -3.88522e-010 -2.22167 -0.733487 0.20892 -2.03217e-016 0 -3.88251e-019 0.61243 -16.3809 7.88351 -0.103051 22.5745 0.360953 -2.43107 -7.57973 -9.99326 2.03217e-016 0 3.88251e-019 -0.230118 -13.6736 -3.16716 0.0675152 19.7159 -0.324494 2.59919 -9.0726 9.84283 
5.20034 83.6143 -82.0509 1.3923 7.08941 -6.32317 -0.484563 2.58651 -4.36727 4.92281 -2.85137 -1.13969 -12.225 2.24632 -10.4283 10.0906 -9.28392 -16.8497 -0 0 0 -0 0 0 2.76846e-014 4.34661e-014 -9.67977e-014 80.8085 14.6287 0.239082 -15.2177 -7.88818 28.1555 -0.0249407 4.45287 0.627116 2.28766e-012 -8.20537e-010 -1.04989e-009 5.04041e-013 -1.41899e-009 -1.81708e-009 2.30388e-012 -8.20542e-010 -1.04989e-009 7.73091 5.47488 0.417314 2.28674e-012 -8.20541e-010 -1.04989e-009 2.90554 0.965183 0.102902 2.29761e-012 -8.20539e-010 -1.04989e-009 10.2786 0.731801 0.0259123 2.28395e-012 -8.20537e-010 -1.04988e-009 2.22167 -0.733487 -0.20892 2.74706e-014 4.34633e-014 -9.70104e-014 -84.6272 16.0847 -0.971305 14.2626 -7.09028 -26.1809 0.0726347 7.58331 -1.07224 -2.47582e-010 4.61417e-010 -3.57549e-010 -4.31014e-010 7.97204e-010 -6.18219e-010 -2.47587e-010 4.61412e-010 -3.57545e-010 -7.73091 5.47488 -0.417314 -2.47599e-010 4.61401e-010 -3.57559e-010 -2.90554 0.965183 -0.102902 -2.47587e-010 4.61411e-010 -3.57548e-010 -10.2786 0.731801 -0.0259123 -2.47577e-010 4.61412e-010 -3.57554e-010 -2.22167 -0.733487 0.20892 -2.03217e-016 0 -3.88251e-019 0.588115 -15.9155 7.56898 -0.0934467 21.7561 0.343778 -2.29082 -7.19727 -9.60026 2.03217e-016 0 3.88251e-019 -0.174777 -13.303 -3.06563 0.0598378 18.9787 -0.308627 2.44054 -8.60441 9.46992 
